<svg height="144.7717" width="132.0817"><path d="M 8.757200,2.301700 L 41.623700,1.717700 L 74.696200,0.961900 L 108.317000,0.377900 L 130.639400,0.000000 L 130.811000,1.545900 L 130.982800,3.641600 L 131.703900,6.389900 L 132.047300,9.000700 L 132.047300,11.921100 L 132.081700,15.734500 L 132.081700,19.204300 L 131.910100,21.815100 L 131.738500,24.117100 L 131.498100,26.178400 L 131.085900,28.995700 L 130.639600,31.091100 L 129.883900,33.358700 L 129.403100,34.423600 L 129.265600,35.832200 L 129.506100,37.206400 L 129.746400,38.924200 L 130.330300,40.092200 L 130.742400,41.466400 L 130.811000,42.668800 L 130.673600,43.905600 L 130.433200,45.142400 L 129.986800,47.066200 L 129.368600,50.192500 L 128.647500,53.353200 L 127.720200,56.101500 L 126.896000,57.166500 L 125.694000,58.334500 L 124.492000,59.090300 L 123.118300,59.983600 L 122.980800,60.086600 L 121.744400,61.083000 L 120.542500,61.838800 L 119.271800,62.319600 L 118.138600,62.800700 L 117.280100,63.384700 L 116.421400,64.106200 L 115.562900,65.102500 L 113.090200,68.400600 L 111.544800,70.668000 L 109.758800,72.523200 L 107.595300,75.409000 L 105.569100,77.951300 L 104.779300,80.012700 L 103.645900,82.795500 L 102.409700,85.028500 L 101.345000,86.608800 L 99.868200,88.051700 L 98.872300,89.048000 L 97.636000,89.872600 L 96.468400,91.143700 L 95.884600,91.968100 L 95.232100,93.136200 L 94.133100,94.579200 L 92.622000,95.816000 L 91.866400,97.705500 L 91.317100,99.595000 L 91.282600,101.243900 L 91.866400,103.236600 L 92.724900,106.706300 L 93.034200,109.111200 L 92.999700,112.237600 L 92.553200,113.783500 L 92.209800,115.707400 L 91.694600,117.940400 L 91.179600,119.520700 L 90.389800,121.032300 L 89.737100,122.440900 L 88.741200,124.021200 L 88.191800,125.223600 L 87.607900,126.494700 L 87.298900,128.178000 L 86.886700,129.999000 L 86.612100,131.819700 L 86.440400,133.193800 L 86.612100,135.736400 L 87.127200,138.038000 L 87.504900,139.858800 L 87.436300,142.641600 L 87.298900,144.771700 L 85.032200,143.053900 L 82.902900,143.912800 L 79.743400,143.225600 L 78.163700,141.336000 L 75.691000,140.820900 L 74.832300,139.103000 L 72.703100,136.835700 L 72.531500,134.774200 L 70.780000,135.976900 L 69.543700,135.289700 L 68.307400,135.461400 L 67.963900,136.698300 L 66.555900,138.415900 L 64.976100,138.587700 L 63.739800,138.244300 L 63.362000,137.041900 L 62.503500,136.354700 L 61.267100,136.698400 L 60.030900,136.526500 L 59.515700,136.011200 L 58.107700,134.121700 L 56.528000,131.510700 L 53.505800,130.995400 L 51.411000,129.449400 L 48.423200,125.636000 L 47.015200,124.948800 L 45.057500,124.261700 L 42.619300,123.574800 L 37.502300,123.918200 L 36.609200,122.544000 L 36.265900,119.795600 L 34.342700,117.012800 L 32.762900,116.497500 L 30.118700,117.184700 L 28.161100,116.841000 L 27.130800,115.295100 L 26.409500,114.092800 L 23.421700,113.405500 L 22.185300,112.546800 L 18.304500,111.859600 L 16.553100,109.592200 L 13.222000,110.485400 L 10.028000,107.359000 L 6.868500,106.156800 L 5.117000,103.889200 L 3.880700,103.545700 L 1.236400,103.923600 L 0.000000,102.343300 L 10.199800,102.171500 L 9.856400,69.122200 L 9.306900,35.866900 z" id="Des_Moines" style="fill:#ffffff;stroke:#000000;stroke-width:1;stroke-linejoin:miter;stroke-miterlimit:4;stroke-dasharray:none" />
</svg>