<svg height="139.54892" width="220.71883"><path d="M 220.718830,6.835840 L 219.516850,40.126050 L 218.005760,73.622390 L 216.563400,123.230230 L 216.528980,139.548920 L 148.564370,137.315920 L 115.561780,136.319620 L 72.050190,134.533070 L 49.418630,133.708580 L 36.231210,133.330640 L 35.887790,132.712190 L 35.990820,130.994460 L 36.437270,129.826460 L 37.295840,129.139380 L 38.360450,129.482870 L 39.596760,129.345530 L 39.940190,128.280420 L 40.146250,127.833770 L 39.287680,127.421480 L 38.188720,127.249780 L 37.501860,126.184670 L 37.158440,124.466930 L 38.188720,123.676800 L 36.299890,122.543060 L 35.784760,120.275690 L 35.441340,119.416740 L 35.441340,118.557970 L 35.097920,116.805890 L 33.861610,113.679550 L 32.831330,112.992490 L 31.766720,113.164280 L 31.251590,113.404780 L 31.045530,113.679660 L 29.843540,114.710210 L 29.294060,114.882110 L 28.160760,114.366820 L 27.542600,113.439340 L 27.576950,113.095650 L 27.611300,112.408590 L 27.920390,111.927560 L 28.435520,111.412290 L 28.950640,111.309310 L 29.328410,111.240690 L 30.942500,110.416080 L 32.075810,109.282460 L 32.247520,107.358580 L 31.972780,106.740120 L 31.457650,106.053150 L 30.805140,105.331520 L 30.049600,103.888760 L 29.534470,102.892380 L 29.088030,102.789400 L 28.126430,102.033510 L 27.267860,101.346430 L 26.374960,100.109640 L 26.374960,96.983400 L 26.065870,95.780950 L 24.486110,94.716030 L 22.906350,95.231320 L 21.704370,95.746590 L 20.845800,95.677970 L 20.983180,92.448680 L 19.506450,90.353200 L 18.819610,89.975250 L 16.724800,89.975250 L 16.003620,89.906620 L 15.934940,88.704180 L 16.347050,88.017020 L 16.450080,87.226960 L 13.290570,83.894490 L 12.432000,83.894490 L 10.714880,81.146210 L 9.787640,80.424680 L 8.929070,80.081190 L 7.967470,80.424680 L 6.971540,79.806420 L 6.044290,80.081190 L 5.151400,80.527840 L 4.533240,79.462920 L 3.159540,76.886250 L 2.438350,77.092490 L 1.751510,76.370960 L 1.717160,75.065530 L 2.541380,73.553870 L 2.781770,72.694990 L 2.644390,71.973570 L 0.995950,70.805490 L 0.583830,69.225100 L 1.098960,67.885310 L 0.034360,66.304910 L 0.000000,65.343010 L 0.995930,63.865810 L 1.098960,63.178640 L 2.026210,59.914940 L 3.399910,59.056150 L 4.601900,58.746860 L 5.529140,58.197200 L 4.464540,56.960520 L 4.121120,56.960520 L 2.644390,56.685620 L 1.167660,55.345790 L 1.064630,54.108950 L 1.339370,53.284550 L 2.266620,52.288230 L 4.395840,50.192600 L 5.975590,47.719070 L 9.272550,46.585380 L 10.131110,46.070110 L 10.302820,44.386620 L 13.840050,42.084850 L 12.809770,39.370950 L 13.462280,38.031120 L 14.561240,36.004110 L 15.660200,34.698660 L 16.003620,33.770960 L 17.411660,32.568640 L 17.239950,29.957600 L 17.755080,28.927060 L 17.583370,28.755150 L 17.961140,27.896360 L 18.991420,28.239880 L 20.193410,28.617770 L 21.258020,31.366200 L 21.979200,31.537960 L 22.666040,31.194440 L 22.837750,28.480540 L 23.387230,28.171260 L 23.558940,28.033880 L 24.074070,28.274250 L 24.966970,27.758980 L 24.623550,25.319700 L 24.760930,23.945480 L 26.237660,23.361450 L 26.993200,22.708800 L 28.435570,22.296510 L 28.504250,21.437570 L 27.061880,19.582470 L 26.443720,18.483020 L 26.512400,17.795990 L 26.924520,16.971430 L 26.649780,15.906490 L 26.958860,14.566660 L 28.263880,13.055080 L 29.774960,13.020550 L 30.118380,11.990010 L 28.916390,11.096690 L 28.744680,9.894240 L 29.981000,8.691920 L 32.590960,8.004750 L 32.797020,6.974200 L 32.178860,6.046490 L 31.560700,5.737360 L 31.045570,5.050180 L 29.809230,5.015810 L 29.500140,4.294400 L 30.152650,0.515410 L 30.187000,0.000000 L 54.054910,0.824560 L 87.195500,2.027010 L 120.371070,3.057560 L 152.996510,4.260010 L 187.373440,5.805980 z" id="Plymouth" style="fill:#ffffff;stroke:#000000;stroke-width:1;stroke-linejoin:miter;stroke-miterlimit:4;stroke-dasharray:none" />
</svg>