<svg height="167.9267" width="135.9638"><path d="M 132.323500,0.000000 L 133.216400,32.740100 L 133.972000,66.716700 L 134.864900,99.800800 L 135.414300,133.400200 L 135.963800,166.655500 L 102.926400,167.926700 L 102.754600,165.487400 L 100.453900,160.986800 L 97.122600,157.688800 L 97.294200,156.658100 L 98.324500,155.971100 L 98.324500,153.875400 L 93.757000,150.783700 L 93.413600,149.752900 L 93.928800,147.313700 L 96.744700,146.798400 L 96.916500,143.156800 L 96.573000,140.889200 L 95.508400,140.717500 L 94.649800,140.545600 L 94.478200,139.514900 L 95.336600,137.797200 L 94.821600,137.110200 L 94.272000,137.797200 L 93.413500,138.999600 L 92.005500,139.171500 L 92.005500,137.453800 L 89.532800,135.530000 L 89.532800,134.327400 L 69.132800,134.877200 L 36.266400,135.426800 L 3.193800,135.804700 L 3.193800,102.034300 L 1.270600,101.862400 L 0.721200,69.122200 L 0.343300,35.351900 L 0.000000,2.267700 L 33.037500,1.546200 L 66.419200,1.133900 L 99.285800,0.584300 z" id="Johnson" style="fill:#ffffff;stroke:#000000;stroke-width:1;stroke-linejoin:miter;stroke-miterlimit:4;stroke-dasharray:none" />
</svg>