<svg height="141.67879" width="232.636"><path d="M 180.298740,6.218670 L 213.645390,7.214880 L 212.889870,21.953270 L 212.821250,39.989600 L 232.636000,40.779840 L 231.811780,75.271520 L 231.262310,82.211150 L 230.815850,108.732660 L 229.854260,141.678790 L 196.645630,140.682400 L 163.092930,139.514410 L 140.632450,138.346410 L 130.261040,137.968570 L 97.258470,136.250640 L 64.392000,134.876600 L 47.701570,134.292420 L 34.891860,133.880310 L 35.029240,133.639800 L 40.936150,132.918360 L 45.229000,127.490130 L 43.511880,124.501330 L 43.820960,121.546900 L 43.202810,117.355550 L 41.004970,113.782580 L 36.986810,111.171630 L 35.887850,110.106520 L 33.243480,105.125220 L 32.625330,98.735230 L 32.384930,95.780800 L 31.869800,94.647160 L 31.835460,94.131700 L 29.294120,91.349050 L 22.253870,86.573620 L 19.575110,80.939520 L 20.399330,76.782540 L 22.940660,72.660000 L 20.914470,65.548590 L 21.395280,59.296140 L 26.134440,54.142770 L 26.821290,53.524500 L 28.435380,51.875400 L 29.637370,50.432540 L 30.701970,48.336960 L 31.148420,46.000890 L 31.560540,42.909000 L 31.800930,38.477170 L 31.251460,35.385300 L 30.427230,32.911780 L 29.019180,30.816290 L 26.752530,29.338890 L 24.451670,28.548840 L 21.292140,27.655530 L 17.445830,27.827410 L 13.049970,28.239700 L 12.603520,28.136630 L 10.062180,27.621350 L 7.349190,26.624960 L 6.147200,26.006710 L 5.529050,25.319530 L 5.322980,23.327040 L 5.735100,22.502530 L 5.872470,21.162640 L 5.391660,20.029010 L 3.365480,19.170060 L 1.957430,19.067080 L 1.133220,18.482980 L 0.995830,15.494190 L 4.670500,13.879450 L 5.391680,12.677000 L 5.563400,11.096710 L 5.597750,5.015850 L 5.254320,2.095580 L 3.331150,0.858780 L 0.721190,1.202260 L 0.000000,0.000000 L 13.187420,0.377840 L 35.818980,1.202260 L 79.330580,2.988790 L 112.333130,3.985100 z" id="Woodbury" style="fill:#ffffff;stroke:#000000;stroke-width:1;stroke-linejoin:miter;stroke-miterlimit:4;stroke-dasharray:none" />
</svg>