<svg height="134.3606" width="133.31861"><path d="M 0.344420,0.000000 L 33.416960,0.068600 L 66.625590,0.446500 L 99.869310,2.026800 L 101.105610,2.061200 L 100.556010,2.920000 L 101.277310,3.435400 L 103.028710,3.607200 L 105.501510,1.545800 L 106.737710,1.167900 L 107.939710,1.717500 L 108.317410,2.576500 L 108.317410,3.607200 L 107.939710,4.466000 L 106.531610,5.874600 L 106.188310,6.561600 L 106.359910,7.248700 L 107.252910,7.764000 L 108.283210,7.592300 L 109.691210,6.561600 L 110.927410,4.637700 L 112.163810,4.294100 L 112.884910,4.843900 L 113.228510,5.874400 L 113.228510,6.733400 L 112.507110,7.420400 L 111.477010,8.279300 L 111.305410,8.794600 L 111.477010,9.516200 L 112.335410,9.859700 L 113.571910,9.859700 L 114.808210,9.000700 L 116.044510,7.420400 L 116.903110,7.076900 L 118.688810,7.076900 L 119.375810,7.420400 L 119.719210,8.142000 L 120.268510,9.172500 L 120.612010,9.859700 L 121.470610,10.031500 L 123.256510,9.687900 L 124.115010,9.000900 L 124.492810,6.389900 L 124.836210,5.702800 L 125.523110,5.702800 L 126.415910,6.389900 L 127.652310,10.718700 L 128.167410,11.440200 L 128.854310,11.612100 L 129.747110,11.612100 L 130.434010,10.718700 L 131.670410,8.657300 L 132.906710,7.970400 L 132.872210,35.144900 L 133.043910,68.056100 L 133.009510,101.311300 L 133.318610,134.360600 L 99.730810,134.326200 L 66.658300,134.120100 L 32.693470,133.742200 L 0.000000,133.329900 L 0.034410,100.967000 L 0.274800,67.196400 L 0.309190,33.768200 z" id="Warren" style="fill:#ffffff;stroke:#000000;stroke-width:1;stroke-linejoin:miter;stroke-miterlimit:4;stroke-dasharray:none" />
</svg>