<svg height="140.9586" width="196.40521"><path d="M 2.575940,0.000000 L 32.281560,1.442980 L 64.735920,2.817180 L 97.326370,4.569290 L 130.295880,5.393700 L 147.123760,6.012110 L 163.264610,6.080740 L 196.405210,7.283190 L 195.993110,18.551500 L 195.924490,40.607630 L 195.237650,74.138920 L 194.585150,107.291190 L 193.932650,140.958600 L 160.585980,139.928050 L 126.209030,138.382070 L 93.583610,137.179620 L 60.408030,136.148920 L 27.267450,134.946470 L 3.399540,134.122070 L 3.468220,130.995730 L 5.528810,128.075560 L 7.314630,125.292760 L 9.066100,126.701350 L 9.237810,125.464520 L 9.375190,123.437500 L 10.130720,121.994680 L 12.122500,121.891530 L 12.775010,121.341870 L 12.328560,119.486770 L 12.946720,117.665900 L 14.904290,115.776420 L 14.423490,114.951870 L 13.667950,111.791160 L 12.637670,110.794990 L 11.573060,110.382700 L 10.371070,108.802360 L 10.577130,105.950930 L 11.950830,104.130220 L 11.882150,102.893370 L 15.659850,100.694750 L 17.273930,98.255460 L 17.342620,95.850560 L 16.346680,92.999280 L 11.847780,90.010340 L 11.882130,88.326990 L 13.461890,86.265610 L 12.912410,85.234910 L 11.882130,85.200540 L 10.817530,85.063160 L 9.958960,84.685250 L 10.645790,83.482800 L 11.023560,82.589640 L 13.461870,81.558940 L 16.106240,80.734380 L 18.029410,80.390850 L 23.146490,75.890340 L 24.897960,76.405750 L 26.649430,75.752940 L 28.778640,72.283240 L 28.606930,71.836590 L 29.808920,69.843970 L 29.911950,68.607270 L 29.671560,67.404820 L 28.984720,66.545890 L 27.920110,65.858860 L 28.126170,64.622030 L 28.332220,63.969370 L 29.705930,63.247940 L 31.217000,61.049040 L 32.693740,58.747280 L 34.067430,56.239370 L 34.548240,52.425880 L 33.105860,48.509380 L 29.774690,45.211310 L 27.164740,43.149930 L 28.091970,34.423900 L 27.611180,31.160210 L 26.271840,27.758990 L 26.168800,24.941790 L 26.752630,20.510030 L 25.378930,16.696520 L 22.940630,14.429150 L 22.734560,14.429150 L 19.575050,14.566520 L 17.342810,16.249870 L 14.148880,16.456010 L 9.787420,13.295310 L 7.383520,13.363920 L 5.460350,12.883040 L 3.468570,13.776210 L 2.919090,14.154100 L 1.888810,13.638830 L 1.270650,12.539520 L 0.652490,11.337070 L 0.137360,10.306370 L 0.000000,8.623020 L 0.618160,7.454940 L 0.858550,6.836540 L 2.781730,5.977740 L 4.842320,5.153190 L 4.224160,1.992480 L 3.537330,1.305460 L 2.953500,0.480890 z" id="Sioux" style="fill:#ffffff;stroke:#000000;stroke-width:1;stroke-linejoin:miter;stroke-miterlimit:4;stroke-dasharray:none" />
</svg>