<svg height="104.2658" width="167.591"><path d="M 0.000000,3.641600 L 33.208500,2.885800 L 66.281000,2.130000 L 98.974600,1.374300 L 99.833100,1.374300 L 133.420800,0.618500 L 166.629500,0.000000 L 167.213200,33.976400 L 167.591000,54.829300 L 166.698100,54.691900 L 166.526500,54.691900 L 164.225700,54.623000 L 164.088200,54.623000 L 161.615400,54.588600 L 159.348700,54.416900 L 157.219600,54.416900 L 155.468200,54.588600 L 152.789300,54.623000 L 152.652000,54.623000 L 149.801500,54.932300 L 147.912600,55.481900 L 146.332800,56.375100 L 146.195400,56.478300 L 144.581400,57.577600 L 143.173400,58.780000 L 141.215700,60.188400 L 139.361200,61.459700 L 137.541300,62.765100 L 134.553200,64.242300 L 131.909000,65.376100 L 130.501000,65.925800 L 128.062700,66.956300 L 126.826200,67.300000 L 125.761700,67.300000 L 122.190100,66.887700 L 120.129400,66.612900 L 118.274900,65.994400 L 116.111300,65.238600 L 114.703300,64.723300 L 113.123400,64.379800 L 111.337700,64.379800 L 109.758000,64.586000 L 108.384300,65.066900 L 106.976200,65.650900 L 105.087400,66.234900 L 103.267300,66.853400 L 99.489600,67.678000 L 97.600700,68.296300 L 96.226900,68.914600 L 94.853300,69.807900 L 93.960400,70.838500 L 93.239100,72.212700 L 92.895700,73.793100 L 92.552300,75.167200 L 92.552300,78.808800 L 92.483700,80.492200 L 92.415200,82.210100 L 91.865600,83.309400 L 90.938300,84.718000 L 89.908000,86.435700 L 89.049600,88.531300 L 88.225200,91.073600 L 87.813100,93.856300 L 87.435500,97.154500 L 87.298100,101.002100 L 87.435500,102.341900 L 87.401100,102.891700 L 67.792300,103.269600 L 34.548800,103.681900 L 1.476200,104.265800 L 1.098500,70.495300 L 0.548800,37.240100 z" id="Muscatine" style="fill:#ffffff;stroke:#000000;stroke-width:1;stroke-linejoin:miter;stroke-miterlimit:4;stroke-dasharray:none" />
</svg>