<svg height="126.4951" width="167.5563"><path d="M 166.285800,15.254100 L 166.354400,16.800100 L 166.663300,19.445400 L 167.350200,22.056200 L 167.556300,25.354400 L 167.350200,27.346900 L 167.041300,28.927300 L 165.633300,30.370100 L 163.675500,32.294000 L 162.645400,34.011700 L 162.095900,35.729600 L 161.889700,36.794500 L 161.649400,37.997000 L 161.580900,40.092700 L 161.306100,42.360000 L 160.722200,44.077700 L 160.241300,46.035800 L 160.516200,47.925500 L 160.378700,50.845700 L 160.928100,55.861400 L 161.099900,59.159500 L 161.477600,62.801100 L 161.649400,65.206000 L 161.477600,67.164200 L 160.893800,68.401000 L 159.554400,69.740800 L 158.043400,71.115000 L 156.394900,71.974000 L 154.609200,72.867100 L 152.514300,73.622900 L 150.247600,74.069500 L 147.294300,74.893900 L 144.203300,76.577500 L 142.142600,78.089100 L 140.803300,79.669400 L 139.670000,81.627700 L 138.639800,83.654700 L 137.506500,84.513600 L 135.995400,85.784700 L 134.965100,87.124500 L 133.488400,89.014000 L 132.149000,90.972200 L 130.912700,92.690000 L 129.332900,94.407700 L 127.615900,95.713200 L 125.829900,96.846800 L 124.181700,97.396500 L 122.086900,97.843100 L 119.339400,97.911800 L 115.286900,97.568300 L 112.539600,97.224800 L 110.066900,96.640700 L 108.624600,96.194000 L 107.044800,95.747400 L 105.430700,95.507100 L 104.022600,95.507100 L 103.851000,95.541400 L 102.271200,95.713200 L 100.004600,96.915600 L 98.424800,97.946300 L 96.639000,99.011200 L 95.231000,99.389300 L 93.479600,99.698400 L 92.071400,100.213700 L 90.732100,100.969500 L 89.289900,101.965800 L 87.881700,103.511800 L 87.366600,104.405100 L 87.160400,105.951000 L 86.851400,107.497100 L 86.302000,108.802500 L 85.786800,109.764400 L 84.619200,110.588900 L 82.421200,112.444100 L 79.433500,114.986300 L 77.682100,116.738400 L 75.930500,118.627900 L 74.316500,120.242700 L 73.114400,121.067300 L 71.946900,121.754300 L 70.332700,121.822900 L 68.031800,121.754300 L 67.894400,121.754300 L 65.730700,122.338400 L 64.082400,123.128500 L 62.399600,123.678100 L 59.961300,124.399600 L 57.454200,124.811900 L 55.359500,125.086700 L 53.779700,125.430200 L 52.028400,125.808200 L 49.761800,126.186000 L 47.804200,126.254600 L 47.666700,126.289200 L 45.537500,126.495100 L 43.408100,126.323400 L 40.798200,126.151600 L 38.497500,125.979700 L 35.853000,125.567500 L 35.475300,104.714600 L 34.891400,70.738100 L 1.682800,71.356500 L 0.755500,38.066300 L 0.000000,4.637900 L 32.522400,3.882100 L 33.758800,4.741100 L 35.853600,5.084500 L 38.669400,6.458800 L 41.313900,9.035300 L 42.206800,12.333400 L 43.614900,14.429000 L 46.602700,16.662000 L 47.838900,18.379700 L 48.903700,19.101200 L 49.933900,18.895000 L 50.483400,18.036200 L 50.483400,16.833800 L 51.170300,16.318500 L 52.750100,16.833800 L 53.471200,16.490200 L 53.814600,15.425200 L 54.673300,15.081700 L 55.737800,15.597000 L 56.459100,15.768800 L 57.489400,14.222800 L 58.210500,13.879300 L 59.240800,13.329700 L 59.240800,12.986000 L 58.897400,11.440100 L 59.069000,10.753000 L 60.477000,9.859800 L 60.820600,9.516200 L 60.820600,8.657300 L 61.198300,8.485400 L 62.572000,8.829000 L 63.293100,8.829000 L 63.636600,8.142000 L 63.293100,6.905200 L 63.980000,6.046300 L 66.624500,4.843800 L 67.860700,5.015800 L 68.925400,5.702800 L 69.440300,7.077000 L 69.612100,7.936000 L 70.676700,8.279500 L 71.535200,8.279500 L 72.428200,7.764200 L 73.115000,6.733600 L 73.664500,6.183700 L 75.244200,6.183700 L 76.274500,4.809700 L 77.888600,4.637800 L 79.983400,6.355500 L 81.219600,6.527400 L 82.456100,4.947000 L 85.272000,4.947000 L 86.817600,2.507800 L 87.882000,2.164200 L 88.431600,4.603500 L 89.839600,5.290500 L 90.869900,6.492900 L 91.762800,6.492900 L 92.999000,4.947000 L 95.265700,4.225600 L 98.768700,4.397500 L 99.661800,2.851500 L 102.821200,3.366800 L 105.980700,2.817200 L 107.903800,1.958200 L 108.625100,2.130100 L 109.312000,2.988900 L 110.033200,2.988900 L 110.891600,2.130100 L 111.612900,2.095700 L 114.257200,2.611000 L 115.665300,2.954500 L 117.932000,2.439200 L 118.824800,1.236800 L 120.748000,0.000000 L 121.984400,0.171900 L 122.671200,1.030800 L 122.499500,2.782900 L 123.220700,4.500600 L 124.457100,5.531200 L 125.865100,5.015900 L 127.616500,3.298200 L 128.853000,3.263800 L 130.054800,4.500500 L 131.669000,4.844100 L 132.871000,5.359400 L 134.828500,7.420800 L 135.515400,8.279600 L 135.000300,9.688200 L 135.000300,10.547100 L 135.721500,11.577700 L 136.236500,12.608400 L 136.957800,12.951900 L 138.503200,11.234200 L 139.395900,11.577700 L 140.804200,13.639100 L 139.739500,14.669800 L 139.773900,15.563000 L 140.804200,16.250100 L 143.448400,14.498100 L 144.856600,14.154500 L 145.715100,12.574200 L 146.608100,12.402200 L 148.702900,13.089300 L 150.832000,14.635200 L 151.896700,16.043800 L 153.648200,16.559300 L 154.712700,16.387400 L 155.571400,14.978800 L 156.635900,14.978800 L 157.494600,13.948200 L 158.559200,12.024400 L 160.482400,11.509000 L 162.062100,12.024400 L 163.470100,13.742100 L 165.427800,14.257400 z" id="Scott" style="fill:#ffffff;stroke:#000000;stroke-width:1;stroke-linejoin:miter;stroke-miterlimit:4;stroke-dasharray:none" />
</svg>