<svg height="133.3307" width="157.5976"><path d="M 0.000000,1.271200 L 33.037600,0.000000 L 33.415100,33.770400 L 66.487700,33.186400 L 99.731400,32.774100 L 119.340000,32.396200 L 119.305800,33.083300 L 119.546000,35.144700 L 119.134100,37.274700 L 119.065500,39.507700 L 118.721900,40.881900 L 118.035000,42.427900 L 117.142200,44.008200 L 116.249300,45.554200 L 115.493700,46.962800 L 114.017100,49.436100 L 113.055500,51.222700 L 112.402900,52.803000 L 111.819100,55.070300 L 111.510000,56.307200 L 110.720100,58.780800 L 109.758500,60.464100 L 108.728300,62.044400 L 108.110200,63.212500 L 107.835400,64.792700 L 107.904000,66.510600 L 108.487800,67.884800 L 109.243400,68.881000 L 110.926200,70.908000 L 112.437200,72.591300 L 113.536100,74.412200 L 114.326000,76.129900 L 115.047100,77.778900 L 115.425100,80.012000 L 115.768500,81.248700 L 116.386600,82.966500 L 117.863200,84.993500 L 119.168200,86.127100 L 119.305800,86.195800 L 120.576500,86.779900 L 121.675400,87.226500 L 122.740000,87.879200 L 123.838900,88.875400 L 124.388400,90.215300 L 124.766300,91.074200 L 125.109700,92.311100 L 125.624700,93.650900 L 126.758100,94.990700 L 127.925600,95.574700 L 129.677100,96.261800 L 131.943800,96.674000 L 133.695300,96.605400 L 135.137600,96.399300 L 135.275200,96.364900 L 136.820400,95.780900 L 137.885200,95.506000 L 138.572100,95.334200 L 140.186000,95.780700 L 142.177900,96.777100 L 143.998000,98.563500 L 144.993900,100.040700 L 146.058600,101.964600 L 147.775700,104.988000 L 149.698800,108.389000 L 150.969600,110.416000 L 152.034100,112.683400 L 153.888600,115.294300 L 155.365500,117.355700 L 156.533000,119.348300 L 157.151300,120.791200 L 157.528800,122.234100 L 157.597600,123.986200 L 157.494500,126.184900 L 157.425800,128.314900 L 157.322900,129.620300 L 157.322900,131.028900 L 135.000400,131.406800 L 101.379700,131.990900 L 68.307100,132.746700 L 35.440700,133.330700 L 34.513400,100.246500 L 1.304700,100.486800 L 0.755300,67.231600 L 0.205800,34.320400 z" id="Louisa" style="fill:#ffffff;stroke:#000000;stroke-width:1;stroke-linejoin:miter;stroke-miterlimit:4;stroke-dasharray:none" />
</svg>