<svg height="101.6213" width="144.51536"><path d="M 144.515360,3.468900 L 143.897210,36.897200 L 143.279050,69.431300 L 142.489160,101.621300 L 75.657850,99.972300 L 43.100440,99.525600 L 18.991480,99.250800 L 17.755170,97.670400 L 16.312790,96.021500 L 14.767360,94.372400 L 13.393660,92.345500 L 12.054330,88.944200 L 11.642200,86.745700 L 11.504740,84.237700 L 11.813840,82.691800 L 12.122930,80.630300 L 12.706740,78.947000 L 13.427940,77.401000 L 14.217810,76.095600 L 14.698610,74.377900 L 14.801630,72.831900 L 14.870250,71.182800 L 14.320780,69.430700 L 13.908680,68.090800 L 12.947080,66.682400 L 12.157210,65.892200 L 10.474420,65.102000 L 8.551250,64.243100 L 7.143200,63.521700 L 6.009910,62.662700 L 5.048330,61.804000 L 4.910870,61.460400 L 4.189680,60.670200 L 3.399800,59.089900 L 3.193730,57.406600 L 4.910870,53.455600 L 6.387600,50.947700 L 6.627990,47.993200 L 5.872450,45.794600 L 2.438250,42.084400 L 2.369630,42.015800 L 0.721190,40.126200 L 0.000000,37.549700 L 0.171660,36.553400 L 0.721130,35.454100 L 2.129190,34.251600 L 3.056440,33.289700 L 4.258430,32.190400 L 5.357380,30.507000 L 6.147260,29.338900 L 6.628050,27.655500 L 6.559430,26.247100 L 6.216000,24.220000 L 5.872570,22.674100 L 5.700910,20.578400 L 5.529270,18.173500 L 5.872680,16.421400 L 5.872680,14.875500 L 5.701040,13.707400 L 5.185900,12.092800 L 3.949560,10.203300 L 3.262730,8.657300 L 2.575870,7.077000 L 1.682980,4.981400 L 1.511330,3.091800 L 1.682980,1.236700 L 2.095070,0.000000 L 12.603910,0.171700 L 45.676460,1.202400 L 78.749010,2.198700 L 111.100360,2.817200 z" id="Mills" style="fill:#ffffff;stroke:#000000;stroke-width:1;stroke-linejoin:miter;stroke-miterlimit:4;stroke-dasharray:none" />
</svg>