<svg height="167.377" width="177.0348"><path d="M 89.736100,0.000000 L 90.972400,1.580400 L 93.616700,1.202400 L 94.853100,1.545900 L 96.604600,3.813500 L 99.764100,5.015800 L 102.958000,8.142200 L 106.289100,7.248900 L 108.040600,9.516300 L 111.921300,10.203500 L 113.157800,11.062300 L 116.145500,11.749500 L 116.866600,12.951800 L 117.896900,14.497800 L 119.854500,14.841500 L 122.498800,14.154200 L 124.078600,14.669700 L 126.001800,17.452300 L 126.345300,20.200700 L 127.238200,21.574900 L 132.355200,21.231500 L 134.793600,21.918400 L 136.751200,22.605500 L 138.159200,23.292700 L 141.147100,27.106200 L 143.241900,28.652200 L 146.263900,29.167500 L 147.843700,31.778300 L 149.251700,33.667800 L 149.766900,34.183100 L 151.003300,34.355000 L 152.239600,34.011500 L 153.098100,34.698500 L 153.475800,35.900900 L 154.712200,36.244500 L 156.291900,36.072700 L 157.700100,34.355000 L 158.043500,33.118300 L 159.279700,32.946400 L 160.516100,33.633500 L 162.267500,32.430900 L 162.439100,34.492500 L 164.568300,36.759900 L 165.427000,38.477600 L 167.899700,38.992900 L 169.479400,40.882400 L 172.638900,41.569400 L 174.768100,40.710600 L 177.034800,42.428500 L 176.863200,45.211200 L 176.416700,47.409800 L 175.798500,48.990100 L 175.111700,50.570300 L 174.081500,52.150800 L 172.845100,53.524900 L 171.643200,54.555600 L 170.097600,55.826800 L 168.621000,56.823100 L 165.461500,58.643700 L 163.778700,60.086800 L 161.546400,61.564100 L 158.764700,63.419100 L 156.944500,64.587200 L 156.292000,64.965200 L 154.849700,65.308600 L 152.720300,65.411600 L 151.209300,65.514600 L 149.217500,65.411600 L 147.156900,64.999500 L 146.367100,64.930700 L 145.405500,64.827900 L 143.448000,64.827900 L 141.524800,64.999500 L 139.567200,65.343300 L 137.403600,65.721200 L 134.965200,66.339500 L 132.046400,67.507700 L 128.509000,69.019300 L 125.692900,70.221600 L 119.580000,72.901400 L 115.081200,74.996800 L 112.162100,76.336700 L 110.376300,77.333000 L 108.590400,78.913400 L 106.667200,80.631100 L 105.018900,82.005300 L 103.336100,84.101000 L 100.966400,86.162200 L 98.596600,88.532700 L 96.226900,90.525300 L 94.029100,92.586600 L 92.998800,93.617300 L 92.037400,95.575500 L 91.213100,97.602500 L 90.972700,99.594900 L 91.041300,101.244000 L 91.899800,102.789800 L 93.307900,104.026900 L 94.372500,104.885800 L 95.780500,105.091700 L 97.532100,105.916300 L 98.871300,107.050100 L 100.519800,108.492800 L 101.824800,110.038900 L 102.752100,111.378700 L 103.713600,113.165100 L 104.400500,115.089100 L 105.121600,116.978700 L 105.636900,118.868100 L 105.808500,121.822600 L 105.636900,123.712100 L 105.293400,126.495000 L 104.606500,129.793000 L 103.507600,132.816200 L 102.889500,134.774500 L 102.305600,137.385300 L 101.687400,139.481000 L 101.790500,141.370400 L 101.618800,143.809800 L 102.134000,146.042600 L 103.198600,148.310100 L 104.847000,151.298800 L 105.671200,152.947900 L 106.186400,155.215400 L 106.186400,157.276700 L 105.671200,159.200700 L 104.606600,160.574700 L 103.026900,161.777400 L 101.824900,162.601800 L 101.275300,163.014100 L 98.837200,163.495100 L 95.883700,164.147900 L 93.445400,164.594400 L 92.106000,165.109700 L 90.354600,165.797000 L 89.083900,164.663200 L 86.473800,163.907400 L 85.065800,163.529500 L 84.001100,163.391900 L 83.314300,163.735400 L 82.730600,164.559800 L 82.387100,165.590700 L 81.562900,166.483900 L 80.601300,167.102200 L 79.433700,167.377000 L 78.540700,167.205300 L 77.854000,166.483900 L 77.682200,165.625100 L 77.682200,164.594400 L 77.270200,163.735400 L 76.617600,163.220100 L 75.038000,163.220100 L 74.144900,163.563500 L 73.114800,163.735400 L 72.050100,163.563500 L 71.294600,163.288800 L 70.573500,162.601600 L 70.092600,161.674100 L 70.195700,160.368600 L 69.749200,159.063200 L 68.753200,158.135500 L 67.173500,157.276700 L 65.937100,156.623900 L 63.395700,155.284000 L 61.301100,154.253500 L 59.893100,153.360100 L 59.171700,152.501400 L 59.171700,151.505100 L 59.549600,150.440000 L 60.064700,149.237500 L 60.785800,147.657200 L 61.129300,146.283000 L 60.579700,145.424200 L 59.893100,145.252300 L 58.931400,145.114900 L 57.969800,144.565400 L 57.420200,143.843700 L 57.076800,142.641400 L 57.592000,141.610700 L 58.313300,140.923800 L 59.000100,140.236600 L 59.721300,139.343300 L 60.064700,138.141000 L 59.893100,137.282100 L 59.343500,136.251400 L 58.313300,135.564300 L 57.248600,135.736100 L 55.497200,135.736100 L 52.509400,136.010900 L 49.693300,135.564300 L 47.186400,134.671200 L 45.469300,133.331200 L 43.855100,131.579000 L 42.927900,129.552100 L 41.210700,125.532500 L 40.352200,123.815000 L 39.322000,122.475100 L 38.051300,121.753600 L 36.677600,120.963600 L 35.063400,120.104800 L 33.655400,119.280100 L 32.591000,118.077700 L 31.869600,116.875200 L 31.320100,115.501100 L 30.976800,114.264200 L 31.011200,112.752700 L 31.457600,111.344100 L 31.423200,109.592000 L 31.423200,107.530600 L 31.217100,106.328300 L 30.324300,105.297600 L 29.259700,104.610400 L 28.023300,104.095300 L 25.894100,103.579800 L 21.326600,102.446100 L 16.930700,101.450000 L 13.908600,100.625300 L 12.363100,99.800900 L 11.298500,98.392300 L 10.783400,97.018100 L 10.783400,95.815600 L 11.195500,94.441400 L 11.470300,93.204600 L 11.298700,91.830300 L 11.298700,90.971600 L 10.955300,89.941000 L 10.062300,88.360700 L 8.825900,87.330000 L 7.761500,86.505300 L 4.567500,84.478400 L 1.957600,82.485900 L 2.129200,77.813500 L 1.098900,77.813500 L 1.098900,68.846800 L 0.549400,35.247500 L 0.000000,1.510200 L 33.449500,0.960500 L 66.693200,0.376500 z" id="Lee" style="fill:#ffffff;stroke:#000000;stroke-width:1;stroke-linejoin:miter;stroke-miterlimit:4;stroke-dasharray:none" />
</svg>