<svg height="136.83532" width="214.6424"><path d="M 119.067500,0.000000 L 119.685700,0.584100 L 121.540100,2.920090 L 124.528000,6.424250 L 127.103800,9.104120 L 128.511800,10.993540 L 129.919800,13.295360 L 131.705600,15.837780 L 133.285400,17.898990 L 134.384300,18.654980 L 134.693400,18.757960 L 134.899400,18.792320 L 135.552100,18.929740 L 136.273200,19.616920 L 136.582200,20.475670 L 136.788400,21.540780 L 136.857000,22.708790 L 136.788400,24.976250 L 136.513600,26.728330 L 135.861100,28.308620 L 135.071200,30.198150 L 134.350100,32.293800 L 133.869300,34.492370 L 133.834800,35.179620 L 133.834800,36.450690 L 133.972300,37.172030 L 134.212500,38.477560 L 134.727700,40.435780 L 135.552100,43.046640 L 136.135700,44.214730 L 137.372100,46.860040 L 138.951900,49.883370 L 140.188200,51.360590 L 141.974100,53.765490 L 144.343700,56.754290 L 146.541500,59.640110 L 148.087000,61.117330 L 148.430400,61.426550 L 150.765500,63.281700 L 152.620100,64.552880 L 154.440300,65.342930 L 157.084600,66.098810 L 159.213800,66.511020 L 161.343100,67.095000 L 162.545100,67.576030 L 164.536900,68.572330 L 164.983200,68.812740 L 167.799400,70.290150 L 170.443600,71.561220 L 173.809200,73.794210 L 176.659600,75.271540 L 179.510200,76.370810 L 181.639300,76.783120 L 184.146200,77.435910 L 185.004700,77.676330 L 187.168400,78.397670 L 187.305800,78.466480 L 190.328000,80.149840 L 193.350100,81.592610 L 195.238900,82.245430 L 196.646900,83.241710 L 197.642800,84.409800 L 198.398300,86.093180 L 198.947800,87.570400 L 199.291200,89.322480 L 199.531600,91.590040 L 200.699300,92.964280 L 201.901300,93.582530 L 203.343600,93.823050 L 203.515300,93.857410 L 205.816300,94.338420 L 207.224300,94.132270 L 208.632200,94.647550 L 209.662500,95.540870 L 210.692900,97.018090 L 210.967600,98.186180 L 211.070600,98.632830 L 211.105000,100.384830 L 211.379800,101.140700 L 211.448300,103.854640 L 211.105000,107.152750 L 210.795900,110.897420 L 210.486700,113.886230 L 210.418300,114.538940 L 210.589900,117.356130 L 211.001900,120.310470 L 211.036400,120.585440 L 211.482700,122.818440 L 212.684700,126.254000 L 214.333200,128.624440 L 214.642400,129.345950 L 210.280900,129.311410 L 201.145800,129.689450 L 168.108300,131.029330 L 134.726600,132.334760 L 101.517900,133.468480 L 68.857500,134.602110 L 35.475900,135.701490 L 3.159600,136.835320 L 2.060700,103.544930 L 1.133200,70.083700 L 0.000000,37.343540 L 32.866500,36.037910 L 65.354000,34.904290 L 64.392400,1.614090 L 97.601000,0.480360 z" id="Jackson" style="fill:#ffffff;stroke:#000000;stroke-width:1;stroke-linejoin:miter;stroke-miterlimit:4;stroke-dasharray:none" />
</svg>