<svg height="99.49146" width="205.50565"><path d="M 205.505650,6.356480 L 204.681420,32.465800 L 203.513780,66.133200 L 201.968370,99.491460 L 168.827780,98.289010 L 152.686900,98.220390 L 135.859030,97.601990 L 102.889530,96.777430 L 70.299090,95.025310 L 37.844710,93.651110 L 8.139100,92.208270 L 8.036070,92.036390 L 6.112890,91.211960 L 5.769470,90.009510 L 4.018010,88.772690 L 1.751350,88.085650 L 1.236220,86.333540 L 3.193790,84.444040 L 2.575630,83.172830 L 3.193790,80.081040 L 1.957470,79.806140 L 0.961540,79.050350 L 2.816040,77.779140 L 5.769490,78.363160 L 8.997630,78.397680 L 12.672290,78.741200 L 16.037860,77.435750 L 17.617620,73.210110 L 17.102500,70.599220 L 16.827750,63.384640 L 18.304480,60.361320 L 18.579220,56.891620 L 18.510540,51.154410 L 20.158980,49.780190 L 19.952920,48.131080 L 20.536740,42.943510 L 18.956990,40.710510 L 16.553090,40.572990 L 15.179390,39.714050 L 13.702670,38.580360 L 11.985550,37.412290 L 11.126980,36.003830 L 10.440140,33.564550 L 8.036240,32.362100 L 7.452420,30.747370 L 6.868590,29.304540 L 7.315040,28.136470 L 7.040300,27.071380 L 3.125170,26.075220 L 1.270670,24.357350 L 0.000000,22.845760 L 0.068680,19.547690 L 0.892900,17.211680 L 2.129220,15.116050 L 4.052390,12.883040 L 4.567520,9.619330 L 3.983700,3.641600 L 1.614010,2.404910 L 0.789790,1.545980 L 0.789790,0.515270 L 0.618080,0.000000 L 40.387560,1.236840 L 143.106260,4.706530 L 151.863610,4.947050 z" id="Lyon" style="fill:#ffffff;stroke:#000000;stroke-width:1;stroke-linejoin:miter;stroke-miterlimit:4;stroke-dasharray:none" />
</svg>