<svg height="138.2783" width="247.06196"><path d="M 149.321720,4.088000 L 181.157910,5.049900 L 214.024410,5.702800 L 247.061960,6.664700 L 246.272100,39.748900 L 245.653920,73.004200 L 244.864040,106.053300 L 244.074170,138.278300 L 211.551760,137.453900 L 178.479210,136.663700 L 145.064530,136.010900 L 112.713190,135.392500 L 79.640640,134.396200 L 46.568090,133.365600 L 36.059260,133.193700 L 36.333990,132.403600 L 36.746120,131.098200 L 37.810720,130.239200 L 38.497590,129.723900 L 39.012700,129.964400 L 39.218760,129.998800 L 40.695500,130.307900 L 42.000520,130.926400 L 43.099470,131.510400 L 44.473170,131.476000 L 45.778180,130.995100 L 46.705420,130.204900 L 47.323600,129.036800 L 47.083190,127.456600 L 46.602410,126.460200 L 45.846860,125.120400 L 44.164090,123.780500 L 41.931830,122.921600 L 40.180360,122.956100 L 37.364350,122.750000 L 36.814870,122.784400 L 35.612880,122.818700 L 33.586690,122.750100 L 30.942330,122.922000 L 28.916150,122.853400 L 26.958580,122.715900 L 25.687910,122.028900 L 24.451600,121.341700 L 24.211180,121.341700 L 23.043540,119.589500 L 22.356710,118.215500 L 22.528350,116.154000 L 22.734400,114.573800 L 23.421270,113.268200 L 24.794940,111.275700 L 26.580770,108.802200 L 27.679730,106.981500 L 28.057470,105.607200 L 28.023070,103.339700 L 27.851410,101.793700 L 27.164570,100.041600 L 26.443370,98.358300 L 25.653500,97.087200 L 25.241380,95.850400 L 24.726260,94.682300 L 24.520200,93.376800 L 23.661630,88.601500 L 22.906100,84.410100 L 22.940510,81.112100 L 23.799090,79.256800 L 26.134360,78.398100 L 28.778720,78.569800 L 29.980700,79.188200 L 30.564530,80.321800 L 30.392870,81.867900 L 29.087850,84.135400 L 28.435350,86.024900 L 28.538380,89.151100 L 29.053520,89.528900 L 29.671690,89.494600 L 35.303910,86.918100 L 37.604780,85.372000 L 38.635030,83.826100 L 39.356220,81.215200 L 39.356220,77.779600 L 38.978480,76.336800 L 38.222940,74.722000 L 36.746210,73.073100 L 35.681580,72.282800 L 35.406860,72.111000 L 33.930130,71.492600 L 32.178660,71.149000 L 30.427190,71.321000 L 28.675740,71.321000 L 26.855580,70.977300 L 24.108190,70.084100 L 21.807310,68.675500 L 19.609480,66.614200 L 19.025680,65.892800 L 17.445910,64.690300 L 16.827770,63.659800 L 16.415640,62.045000 L 16.347020,60.670800 L 16.759140,59.674500 L 17.308620,59.159200 L 18.510600,58.609600 L 19.918630,57.613300 L 21.154970,56.891600 L 22.494320,56.067200 L 23.799340,54.761800 L 24.314470,53.971700 L 24.863950,52.597400 L 24.966970,50.879700 L 24.177100,49.299300 L 23.455920,47.753400 L 22.528660,45.829500 L 21.910480,44.455300 L 22.013530,43.184100 L 22.425650,42.016000 L 22.975120,40.642000 L 23.696310,39.473800 L 24.486180,38.168200 L 24.760920,37.137700 L 24.554870,34.939100 L 24.211420,32.671600 L 23.868020,31.297300 L 24.245770,29.442300 L 24.932640,27.999300 L 25.825540,26.797000 L 26.993180,25.835000 L 27.954780,25.079200 L 28.469910,23.842400 L 28.813330,22.330900 L 28.126480,20.578700 L 27.096210,18.998400 L 26.340680,17.624100 L 25.173030,16.731000 L 24.142760,16.249900 L 22.940770,15.975200 L 21.017600,15.837700 L 19.540860,15.837700 L 18.476260,16.353000 L 17.068210,16.868400 L 15.316740,16.696500 L 13.805680,15.665900 L 12.672380,14.944400 L 11.264330,13.948200 L 9.856300,13.398400 L 8.482600,12.848700 L 6.799820,12.402100 L 4.876640,12.092900 L 3.022140,11.268300 L 1.785830,10.409600 L 0.858580,9.550600 L 0.412130,8.451300 L 0.000000,6.699200 L 0.240390,5.668500 L 0.927250,4.500500 L 1.614090,3.676100 L 2.507020,3.126300 L 3.846360,2.130000 L 5.151380,1.408500 L 6.628110,0.412200 L 7.108920,0.000000 L 9.581620,0.034500 L 17.480310,0.240600 L 50.517860,1.271300 L 83.040270,2.267500 L 115.733760,3.263800 L 148.806310,4.088300 z" id="Pottawattamie" style="fill:#ffffff;stroke:#000000;stroke-width:1;stroke-linejoin:miter;stroke-miterlimit:4;stroke-dasharray:none" />
</svg>