<svg height="142.7103" width="179.40552"><path d="M 131.943490,5.291500 L 164.809980,6.116100 L 163.985760,39.233200 L 163.161540,72.661500 L 162.199960,105.916800 L 179.405520,106.329100 L 178.959060,142.710300 L 178.443930,142.710300 L 145.371370,141.885700 L 112.677890,140.889400 L 80.155480,139.893200 L 47.117930,138.862500 L 39.219250,138.656400 L 36.746530,138.622000 L 37.399050,138.072400 L 38.017200,136.732500 L 38.498000,135.014800 L 38.120240,132.919200 L 37.639420,131.029700 L 36.849540,128.831000 L 36.094030,126.529100 L 34.995060,124.880200 L 33.277930,123.231100 L 31.869890,122.681400 L 29.603250,122.853300 L 27.817440,123.883900 L 27.199290,125.361200 L 26.581110,127.181900 L 26.409460,128.899800 L 26.237800,129.964800 L 25.344900,131.510700 L 24.383300,132.610100 L 23.387380,133.400200 L 20.949070,133.572100 L 19.747090,133.675100 L 18.510780,133.400200 L 16.931010,132.747500 L 16.724950,132.678900 L 15.969410,132.369700 L 14.389690,132.232200 L 13.050330,131.613900 L 11.642250,130.411500 L 10.577660,129.002900 L 8.997910,126.220200 L 8.414080,124.674100 L 7.830270,122.750300 L 7.933290,121.341700 L 8.345430,119.658400 L 8.688830,118.249800 L 9.307010,116.944300 L 10.268610,116.016800 L 11.333200,114.642600 L 12.191780,114.024100 L 13.290740,113.440100 L 13.805860,112.924800 L 14.321030,112.065900 L 14.149360,111.207100 L 13.565530,109.420600 L 12.603960,108.046400 L 9.959580,106.500400 L 7.040540,104.611000 L 5.735530,103.683400 L 4.258780,101.999900 L 3.468930,100.557100 L 3.056810,99.114100 L 2.988100,97.739900 L 3.846690,96.056500 L 4.808310,94.201400 L 6.319350,92.277500 L 7.383990,91.246900 L 8.139510,89.769500 L 8.792010,88.086100 L 9.513180,86.402800 L 9.787950,84.135400 L 9.581870,82.211600 L 8.998060,80.493900 L 7.899100,78.466800 L 6.388010,76.852100 L 4.979980,74.928200 L 3.743640,73.382300 L 2.885070,71.801900 L 2.679020,70.255900 L 2.541670,69.568900 L 2.885070,66.958000 L 3.262870,65.927300 L 3.434560,65.102800 L 4.499150,64.175200 L 5.769820,63.488100 L 6.731430,63.247600 L 8.105160,63.522400 L 9.581840,63.694300 L 11.333310,63.522400 L 12.878740,63.694300 L 14.458470,63.453800 L 15.557440,63.213400 L 16.278650,62.526300 L 16.622080,61.461300 L 16.622080,59.915200 L 16.278650,58.197500 L 15.248370,56.960800 L 14.321120,55.998900 L 12.947430,55.208600 L 10.921240,54.349700 L 9.959650,53.834500 L 8.723340,52.803700 L 7.933440,51.532600 L 7.899040,49.780600 L 8.070690,48.097200 L 8.585820,46.551100 L 9.684780,44.696000 L 11.058450,42.737800 L 12.672550,40.332900 L 14.767390,37.034800 L 17.583420,33.118300 L 18.613660,31.091200 L 19.094480,29.064300 L 19.266130,26.968600 L 18.854020,25.457000 L 17.549010,23.739300 L 16.759130,23.017900 L 15.694500,22.571200 L 14.492540,22.296500 L 13.256190,21.781100 L 12.260260,21.437600 L 11.504750,20.887900 L 10.268400,19.719900 L 9.066420,18.654800 L 8.345200,17.589800 L 7.830110,16.559100 L 7.246240,15.356800 L 7.143210,13.776400 L 7.486620,11.715000 L 7.864390,9.962900 L 7.898800,8.623200 L 7.521030,6.836600 L 7.074590,5.599800 L 6.456420,4.775400 L 5.082720,3.710300 L 3.571650,2.748400 L 1.923210,1.614700 L 0.412120,0.412300 L 0.000000,0.000000 L 32.145280,1.923900 L 65.182840,3.126300 L 98.391470,4.122600 z" id="Harrison" style="fill:#ffffff;stroke:#000000;stroke-width:1;stroke-linejoin:miter;stroke-miterlimit:4;stroke-dasharray:none" />
</svg>