<svg height="146.93638" width="188.9536"><path d="M 0.000000,13.398330 L 32.454400,12.470760 L 66.351000,11.680610 L 66.488500,2.164400 L 66.522900,0.000000 L 68.240200,0.721440 L 71.949200,1.271070 L 74.765300,1.958250 L 82.251800,4.088260 L 87.918300,5.050210 L 91.798900,5.737290 L 95.885700,6.733570 L 100.693800,7.455010 L 104.265200,8.313970 L 106.188500,8.829250 L 109.004500,9.172730 L 111.614600,9.688110 L 113.572100,10.203390 L 115.941800,11.096710 L 118.311500,11.921110 L 120.440700,13.535870 L 121.642700,15.184880 L 122.157700,15.872040 L 123.565800,18.311290 L 124.424300,20.132010 L 125.214300,21.987260 L 125.695000,24.048670 L 126.038400,25.766390 L 126.588100,27.518470 L 127.584000,29.270660 L 129.026300,32.602940 L 130.812100,36.004040 L 131.567500,38.030980 L 132.391900,40.504500 L 133.353300,42.462650 L 134.692900,44.146020 L 136.787500,46.035620 L 138.298700,47.100550 L 139.603600,48.818270 L 140.393500,50.501630 L 141.011600,52.563040 L 141.904600,55.380230 L 142.076300,57.304120 L 141.561200,59.021930 L 140.153100,61.117420 L 138.779400,63.213080 L 137.543000,65.480460 L 137.199600,67.198270 L 137.027900,69.809220 L 137.130900,71.217620 L 137.199600,72.420070 L 138.607600,74.481490 L 141.011600,76.783400 L 144.239700,79.153830 L 148.120500,81.386840 L 150.936400,82.760990 L 153.100000,83.551230 L 153.649600,83.860360 L 156.362500,84.856660 L 158.285700,85.578180 L 160.758500,86.402600 L 162.509900,87.433350 L 163.574600,88.463990 L 164.295700,89.975580 L 164.570500,92.071240 L 165.154400,93.754510 L 166.562400,95.403530 L 167.111800,95.747210 L 168.897600,97.086990 L 169.206700,97.293140 L 172.057200,98.667190 L 175.285300,99.904090 L 177.826500,101.106540 L 177.964100,101.175160 L 180.093200,102.308800 L 182.222400,104.026520 L 184.523400,106.087930 L 185.725200,106.774990 L 187.202000,107.187300 L 188.472700,108.011800 L 188.953600,108.424110 L 167.490200,108.905030 L 134.281600,110.038850 L 135.243200,143.329050 L 102.755700,144.462670 L 69.889300,145.768190 L 36.713800,146.008700 L 4.741400,146.936380 L 3.642500,114.161190 L 2.543400,80.184780 L 1.856800,80.184780 L 1.101200,46.894400 z" id="Dubuque" style="fill:#ffffff;stroke:#000000;stroke-width:1;stroke-linejoin:miter;stroke-miterlimit:4;stroke-dasharray:none" />
</svg>