<svg height="140.54628" width="195.13431"><path d="M 195.134310,7.801250 L 194.138360,40.918600 L 193.142450,74.379820 L 191.631360,107.290980 L 190.635450,140.546280 L 157.082720,139.378380 L 123.874110,138.381980 L 90.836540,137.179480 L 58.691290,135.255580 L 57.798390,134.259380 L 56.939830,132.197980 L 56.390320,130.445880 L 56.424690,128.899880 L 56.184300,127.319480 L 55.703500,125.945480 L 54.329800,123.884080 L 53.436890,122.475480 L 52.578330,121.066880 L 52.578330,118.868280 L 53.162160,118.215580 L 53.814660,117.768980 L 54.982310,117.494080 L 56.115620,117.116180 L 57.145900,116.222980 L 58.107470,115.467180 L 58.897370,114.299080 L 59.378140,112.753180 L 59.481190,111.207180 L 59.034720,109.970380 L 58.588290,108.458780 L 58.244870,106.534880 L 57.901450,105.160680 L 58.073180,103.923980 L 58.347900,102.618480 L 58.794340,101.244180 L 59.687250,99.973080 L 60.374070,98.736280 L 60.923580,96.846780 L 60.820520,95.506880 L 59.515530,93.720480 L 58.176160,92.689780 L 56.905520,92.483780 L 55.428780,91.968380 L 54.020730,91.865380 L 52.612680,91.934080 L 51.342010,92.208880 L 50.140020,92.105780 L 49.178420,91.934080 L 48.251170,91.109480 L 47.426950,90.353680 L 46.911830,89.151180 L 46.431030,87.502180 L 46.499710,86.299780 L 46.568380,84.994280 L 46.534030,83.517030 L 46.568380,81.868030 L 46.431020,81.455720 L 45.847190,81.146630 L 44.645190,80.184530 L 40.764470,79.806620 L 38.085700,80.665630 L 35.200860,85.269080 L 31.800890,84.547580 L 30.530210,82.692430 L 30.495870,81.627530 L 31.629170,78.191930 L 34.445190,76.508620 L 36.162310,74.309950 L 36.402700,73.691510 L 36.608760,72.454710 L 36.059280,71.424050 L 35.887560,70.221700 L 33.895790,68.710130 L 33.311950,68.469620 L 31.903910,67.404510 L 26.340500,68.229110 L 22.974920,66.408210 L 22.391090,65.137130 L 22.185040,64.656220 L 21.807260,63.591200 L 20.914380,60.327450 L 20.673980,56.548320 L 21.360820,52.013580 L 23.730500,47.684620 L 24.795120,43.459210 L 24.245630,38.924280 L 22.391150,36.965870 L 22.047730,36.141460 L 19.334730,34.526710 L 13.977380,32.911950 L 12.019810,30.404280 L 11.367300,28.514570 L 10.680460,26.144230 L 8.482620,23.808050 L 4.464470,21.265820 L 2.575640,18.345630 L 2.369590,17.074570 L 2.232220,16.834050 L 1.854450,15.631510 L 1.614060,14.223010 L 1.648410,13.329800 L 1.717090,11.783850 L 1.888800,10.924900 L 1.888800,9.172810 L 2.026180,8.313960 L 1.923150,7.283300 L 1.201960,4.844040 L 0.515120,3.298020 L 0.171710,2.061400 L 0.000000,1.030640 L 0.171710,0.000000 L 12.981400,0.412200 L 29.671850,0.996280 L 62.538330,2.370520 L 95.540880,4.088260 L 105.912280,4.466110 L 128.372760,5.634200 L 161.925480,6.802280 z" id="Monona" style="fill:#ffffff;stroke:#000000;stroke-width:1;stroke-linejoin:miter;stroke-miterlimit:4;stroke-dasharray:none" />
</svg>