<svg height="163.048" width="154.2312"><path d="M 107.800800,0.000000 L 107.663400,3.847730 L 107.628900,7.283320 L 107.594400,7.523710 L 107.285300,9.722330 L 106.770300,11.268300 L 106.392500,12.333370 L 106.186400,12.676890 L 105.705700,13.535690 L 104.984400,15.116040 L 104.881400,16.868160 L 105.018900,18.070600 L 105.362300,19.616580 L 105.946100,21.162530 L 107.045100,22.330620 L 108.178300,23.498690 L 110.410700,26.350100 L 112.093400,28.892400 L 112.265100,29.407670 L 112.917500,31.262920 L 113.982100,34.732620 L 114.600300,38.339830 L 114.565900,40.950740 L 114.291200,42.874610 L 113.844700,44.454950 L 113.226600,46.756860 L 112.608500,48.440200 L 111.715500,49.505130 L 111.131700,50.673220 L 110.822700,51.703910 L 111.234700,52.906360 L 111.646800,54.280570 L 112.436700,55.757790 L 113.844700,56.960240 L 115.252800,57.303740 L 116.866800,57.475640 L 118.240600,57.647400 L 119.717400,58.265820 L 121.537500,59.605660 L 123.838200,60.773730 L 125.074700,60.395830 L 127.513000,61.083010 L 130.225900,62.354080 L 133.660100,64.381080 L 137.025700,66.991990 L 140.562900,69.877790 L 142.966800,71.836180 L 144.924400,74.447080 L 146.504200,77.367260 L 146.710100,77.779540 L 149.148400,82.932730 L 149.492000,84.959740 L 149.663600,86.574470 L 150.556500,88.669940 L 151.621200,89.872390 L 153.200800,90.387820 L 153.475600,90.834340 L 153.887700,91.452750 L 154.231200,92.826950 L 153.990700,94.716450 L 153.544300,95.609770 L 152.582700,96.880840 L 151.105900,98.392430 L 147.774700,102.377550 L 144.993000,105.847390 L 141.489900,110.004260 L 138.605200,113.542860 L 138.502000,113.714740 L 137.334400,115.569870 L 136.372800,117.699850 L 135.171000,120.139150 L 134.312300,122.475150 L 133.591200,125.326580 L 132.217400,129.002700 L 131.702300,130.582900 L 131.152900,132.300760 L 130.088200,134.499400 L 128.714500,135.804850 L 128.577000,135.873470 L 126.791200,136.629270 L 125.623600,137.213300 L 125.383200,137.350680 L 124.455900,138.037860 L 123.803400,138.931020 L 123.288300,140.305250 L 123.116700,141.851210 L 123.116700,144.462110 L 123.425700,146.420370 L 123.700400,150.027430 L 123.872200,152.294970 L 124.009600,156.451850 L 123.666200,160.436960 L 123.700600,160.952360 L 119.098600,160.952360 L 102.270800,161.330270 L 69.989500,161.914310 L 36.677800,162.326590 L 4.567500,163.048000 L 3.983800,129.895740 L 3.434200,96.914520 L 3.056300,64.621470 L 0.927100,64.621470 L 0.377700,30.575040 L 0.000000,2.438170 L 87.641400,0.376780 L 93.067500,0.376780 L 93.754400,0.342400 L 99.008800,0.239400 z" id="Allamakee" style="fill:#ffffff;stroke:#000000;stroke-width:1;stroke-linejoin:miter;stroke-miterlimit:4;stroke-dasharray:none" />
</svg>