<svg height="169.23206" width="202.5534"><path d="M 119.135400,0.000000 L 119.273000,2.473530 L 119.204300,5.427950 L 119.479100,8.141870 L 119.822500,11.096280 L 120.166000,14.566130 L 121.402300,19.272780 L 122.638600,23.017380 L 124.218400,27.586680 L 125.283000,30.712990 L 125.592000,31.606170 L 126.004100,32.808620 L 126.107100,34.320210 L 126.038500,36.415840 L 125.592000,38.511480 L 126.175900,39.920060 L 126.381900,40.229190 L 127.515300,41.878310 L 127.927500,42.496580 L 129.163700,45.107480 L 129.541400,48.577320 L 129.541400,51.360130 L 129.644500,53.283990 L 129.713100,54.142780 L 130.262600,58.127890 L 130.159500,61.941400 L 130.262600,64.380680 L 131.224100,66.407690 L 132.357400,68.022280 L 134.109000,69.568400 L 136.753300,70.942450 L 139.226100,72.522810 L 141.664400,74.755810 L 143.072400,77.538620 L 143.209800,77.916510 L 143.965400,80.287050 L 144.789500,83.378830 L 145.407800,85.440230 L 145.922900,87.089340 L 146.438000,88.463560 L 147.331000,89.150580 L 147.674300,89.391110 L 148.361200,89.837620 L 149.151100,90.833930 L 149.769300,91.761480 L 149.803600,93.032690 L 149.700700,94.784810 L 149.803600,97.842380 L 150.009600,102.068000 L 150.490500,105.984500 L 151.383500,109.282580 L 152.104600,112.580790 L 152.619700,114.642190 L 152.894500,116.016250 L 153.512600,117.424840 L 154.027700,118.455540 L 154.645900,119.417470 L 154.920600,120.379410 L 154.920600,121.478710 L 154.577300,122.646790 L 154.439800,123.230810 L 154.508300,123.436960 L 154.679900,124.089750 L 155.229600,124.948530 L 155.985000,125.395180 L 156.671900,125.738770 L 157.049600,126.425930 L 157.084200,126.941220 L 157.290100,127.628190 L 158.045600,128.830640 L 158.766800,129.311760 L 159.488100,129.449100 L 160.003200,129.552080 L 160.896100,129.552080 L 161.583000,129.517720 L 162.647600,129.655250 L 163.540400,130.136160 L 164.055600,130.754510 L 164.227400,131.819430 L 164.227400,132.678400 L 164.776700,133.709150 L 165.291800,134.258780 L 165.463500,134.396120 L 166.390700,135.048940 L 167.661400,135.873540 L 170.717900,137.453720 L 173.430800,138.896690 L 175.663200,140.614420 L 177.414600,142.023010 L 178.651000,143.568940 L 180.539700,145.011800 L 182.153900,146.008100 L 184.317600,147.107380 L 186.034700,148.069510 L 187.717400,148.515980 L 189.675100,148.790930 L 190.533500,148.756480 L 191.941500,148.515980 L 193.521300,148.447360 L 194.963700,148.894010 L 196.577700,149.718430 L 198.329300,150.474220 L 199.531200,150.989690 L 201.832200,151.848440 L 202.553400,152.123320 L 202.518900,154.287710 L 202.381500,163.803920 L 168.484600,164.594150 L 136.030300,165.521840 L 102.683600,166.621120 L 69.681100,167.720490 L 36.334400,168.304480 L 2.987800,169.232060 L 2.404000,135.908750 L 1.854400,103.133640 L 1.305000,69.293220 L 0.549500,36.485010 L 0.000000,2.096460 L 32.110300,1.375050 L 65.421900,0.962770 L 97.703300,0.378740 L 114.531100,0.000850 z" id="Clayton" style="fill:#ffffff;stroke:#000000;stroke-width:1;stroke-linejoin:miter;stroke-miterlimit:4;stroke-dasharray:none" />
</svg>