<svg height="135.1856" width="134.5902"><path d="M 0.000000,2.404800 L 33.552700,1.477300 L 66.625300,1.099400 L 99.491700,0.549800 L 119.891700,0.000000 L 119.891700,1.202500 L 122.364400,3.126400 L 122.364400,4.844100 L 123.772400,4.672200 L 124.630900,3.469800 L 125.180400,2.782800 L 125.695600,3.469800 L 124.837000,5.187500 L 125.008700,6.218200 L 125.867200,6.390100 L 126.931900,6.561800 L 127.275300,8.829400 L 127.103700,12.471000 L 124.287600,12.986300 L 123.772400,15.425500 L 124.115900,16.456300 L 128.683300,19.548000 L 128.683300,21.643700 L 127.653100,22.330700 L 127.481500,23.361400 L 130.812700,26.659500 L 133.113500,31.160000 L 133.285100,33.599300 L 133.491200,66.648400 L 134.040600,99.559600 L 134.590200,132.814900 L 100.969400,133.192900 L 68.275900,134.257800 L 34.861300,135.013700 L 20.609100,135.185600 L 2.132900,134.842000 L 2.304600,123.779800 L 1.411700,102.479800 L 0.896500,68.709200 L 0.347000,35.625100 z" id="Washington" style="fill:#ffffff;stroke:#000000;stroke-width:1;stroke-linejoin:miter;stroke-miterlimit:4;stroke-dasharray:none" />
</svg>