<svg height="145.6975" width="138.95019"><path d="M 33.484750,0.065500 L 66.693380,0.099800 L 100.452140,0.134200 L 133.489790,0.168600 L 133.455290,33.252800 L 133.420990,66.714200 L 133.214890,100.142500 L 138.641090,100.142500 L 138.950190,135.631300 L 138.950190,142.055700 L 137.713890,142.742900 L 136.477490,144.804300 L 135.790590,145.697500 L 134.897690,145.697500 L 134.210890,145.525600 L 133.695690,144.804200 L 132.459390,140.475400 L 131.566490,139.788200 L 130.879690,139.788200 L 130.536190,140.475400 L 130.158390,143.086300 L 129.299990,143.773300 L 127.513990,144.117000 L 126.655390,143.945100 L 126.311990,143.257900 L 125.762690,142.227400 L 125.419190,141.506000 L 124.732290,141.162300 L 122.946490,141.162300 L 122.087890,141.506000 L 120.851690,143.086200 L 119.615290,143.945100 L 118.379090,143.945100 L 117.520490,143.601500 L 117.348790,142.880100 L 117.520490,142.364700 L 118.550590,141.506000 L 119.271890,140.818800 L 119.271890,139.959900 L 118.928490,138.929300 L 118.207190,138.379600 L 116.970790,138.723100 L 115.734690,140.647000 L 114.326590,141.677700 L 113.296290,141.849400 L 112.403390,141.334200 L 112.231690,140.647100 L 112.575190,139.959900 L 113.983290,138.551300 L 114.360990,137.692600 L 114.360990,136.661900 L 113.983290,135.803000 L 112.781090,135.253300 L 111.544990,135.631300 L 109.072190,137.692600 L 107.320690,137.520800 L 106.599490,137.005500 L 107.148890,136.146600 L 105.912690,136.112300 L 72.669030,134.531900 L 39.460400,134.153900 L 6.387850,134.085300 L 6.799980,100.315000 L 0.137460,100.315000 L 0.000000,67.059700 L 0.206070,32.568000 L 0.240480,23.395300 L 0.240480,22.536400 L 0.274890,0.000000 z" id="Polk" style="fill:#ffffff;stroke:#000000;stroke-width:1;stroke-linejoin:miter;stroke-miterlimit:4;stroke-dasharray:none" />
</svg>