<svg height="124.9143" width="150.07595"><path d="M 147.774900,2.371000 L 146.813330,35.591300 L 145.851730,68.640400 L 150.075950,68.846600 L 148.770950,96.709300 L 147.981050,124.914300 L 90.045300,122.715600 L 34.205120,120.379600 L 37.742350,117.940300 L 39.253400,113.680300 L 38.566570,111.550300 L 33.586930,106.740500 L 32.968760,99.663500 L 31.801100,96.812000 L 26.237690,90.834300 L 18.510660,88.841800 L 12.706770,84.856700 L 10.234070,75.237300 L 8.276490,73.004200 L 1.476720,69.190700 L 0.515130,66.442300 L 0.000000,62.010500 L 2.163620,56.479400 L 5.494790,53.181400 L 13.565330,49.093100 L 15.316800,47.066300 L 16.587460,43.802500 L 16.587460,43.046600 L 16.381400,41.706700 L 15.728900,40.126500 L 14.835990,38.202700 L 14.492570,36.828400 L 13.874420,35.110600 L 13.634010,33.186700 L 13.805660,31.812700 L 14.149100,30.232300 L 15.248050,28.239700 L 15.763180,26.624900 L 15.419760,23.498800 L 15.591410,21.952800 L 14.629800,19.891400 L 13.702590,18.070600 L 13.324820,16.902500 L 13.015730,15.425300 L 13.462180,13.879300 L 13.908630,12.711200 L 14.561140,11.371400 L 15.454040,10.753000 L 16.862090,10.340700 L 18.441840,9.825400 L 20.296330,9.688100 L 21.601360,8.966500 L 22.494250,8.107700 L 23.696250,6.802300 L 24.383070,4.603600 L 24.486120,3.057700 L 24.623550,1.168000 L 24.280110,0.000000 L 48.389070,0.274900 L 80.946470,0.721500 z" id="Fremont" style="fill:#ffffff;stroke:#000000;stroke-width:1;stroke-linejoin:miter;stroke-miterlimit:4;stroke-dasharray:none" />
</svg>