<svg height="121.27447" width="216.1168"><path d="M 211.480500,0.036730 L 212.030000,1.342150 L 212.751200,3.300300 L 213.781500,4.914960 L 214.743100,7.113590 L 215.739000,8.487840 L 216.082400,9.484130 L 216.116800,11.098720 L 215.670400,12.438720 L 215.052200,13.881510 L 214.365400,15.084010 L 213.815800,16.458220 L 213.644200,17.866610 L 213.541200,19.481370 L 213.438300,20.889870 L 212.613900,22.710670 L 211.755500,24.256670 L 210.175600,26.764570 L 209.179700,28.344870 L 209.111100,30.612370 L 209.488900,32.948370 L 210.381800,35.250170 L 211.412100,37.105470 L 212.236300,39.200870 L 213.129100,41.708770 L 213.575600,43.770170 L 213.713100,46.106370 L 213.232200,48.133270 L 213.163600,48.373770 L 212.511100,49.919670 L 212.030300,51.190970 L 211.652600,52.187270 L 210.381900,54.969870 L 209.145700,58.371070 L 208.561700,61.531870 L 208.184000,64.829870 L 207.771900,66.925570 L 207.428300,68.471470 L 206.844700,69.914370 L 206.398200,70.738870 L 205.848700,71.700770 L 205.573900,73.452970 L 205.505300,74.895770 L 205.161900,77.850170 L 205.471000,78.743470 L 205.883200,80.014570 L 206.226500,82.694270 L 206.089100,84.721370 L 205.367900,86.507670 L 204.475000,87.710170 L 202.929500,88.843870 L 201.178000,89.565370 L 201.040700,89.599770 L 198.705400,90.355570 L 196.576200,91.042670 L 194.996400,91.970270 L 193.416600,93.035170 L 193.279200,93.172670 L 191.012500,95.130870 L 190.394400,95.646170 L 190.257000,95.749170 L 189.398400,96.401970 L 187.956100,97.398270 L 185.105500,99.356370 L 181.843000,101.211670 L 180.229100,102.104770 L 179.782500,102.345270 L 177.756300,103.822470 L 175.352400,106.021170 L 173.429200,108.288470 L 171.334400,111.242970 L 169.892000,113.544870 L 169.033500,115.228270 L 168.655700,116.739770 L 168.690200,117.426970 L 167.831600,116.430670 L 165.874000,115.915170 L 164.466000,114.197470 L 162.886300,113.682170 L 160.963100,114.197470 L 159.898400,116.121570 L 159.039900,117.152070 L 157.975200,117.152070 L 157.116700,118.560670 L 156.052100,118.732370 L 154.300700,118.217170 L 153.236000,116.808570 L 151.106700,115.262570 L 149.011900,114.575570 L 148.119000,114.747370 L 147.260700,116.327670 L 145.852600,116.671270 L 143.208200,118.423470 L 142.177900,117.736170 L 142.143400,116.843070 L 143.208200,115.812470 L 141.800100,113.750970 L 140.907100,113.407470 L 139.361700,115.125270 L 138.640500,114.781670 L 138.125400,113.750970 L 137.404300,112.720470 L 137.404300,111.861470 L 137.919400,110.452870 L 137.232500,109.594170 L 135.274900,107.532770 L 134.072900,107.017470 L 132.458900,106.673770 L 131.256800,105.437170 L 130.020400,105.471470 L 128.269100,107.189270 L 126.860900,107.704470 L 125.624700,106.673970 L 124.903500,104.956270 L 125.075200,103.204170 L 124.388300,102.345170 L 123.151800,102.173270 L 121.228700,103.410070 L 120.335800,104.612570 L 118.069300,105.127870 L 116.661300,104.784370 L 114.016900,104.268870 L 113.295700,104.303470 L 112.437100,105.162170 L 111.715800,105.162170 L 111.029100,104.303470 L 110.307800,104.131570 L 108.384600,104.990470 L 105.225200,105.540170 L 102.065600,105.024870 L 101.172700,106.570670 L 97.669800,106.398870 L 95.403100,107.120370 L 94.166700,108.666270 L 93.273700,108.666270 L 92.243600,107.463770 L 90.835600,106.776870 L 90.286000,104.337470 L 89.221400,104.681070 L 87.675900,107.120370 L 84.860100,107.120370 L 83.623700,108.700670 L 82.387300,108.528770 L 80.292600,106.810970 L 78.678500,106.982870 L 77.648200,108.357170 L 76.068400,108.357170 L 75.519000,108.906770 L 74.832000,109.937570 L 73.939200,110.452770 L 73.080600,110.452770 L 72.016000,110.109270 L 71.844400,109.250370 L 71.329200,107.876070 L 70.264500,107.189070 L 69.028300,107.017170 L 66.383900,108.219570 L 65.697100,109.078470 L 66.040500,110.315270 L 65.697100,111.002270 L 64.975800,111.002270 L 63.602200,110.658770 L 63.224400,110.830670 L 63.224400,111.689470 L 62.880900,112.033070 L 61.472800,112.926270 L 61.301200,113.613270 L 61.644800,115.159370 L 61.644800,115.502970 L 60.614300,116.052670 L 59.893200,116.396170 L 58.863100,117.942070 L 58.141800,117.770170 L 57.077100,117.254870 L 56.218600,117.598470 L 55.875300,118.663470 L 55.153900,119.007070 L 53.574300,118.491770 L 52.887400,119.007070 L 52.887400,120.209570 L 52.337900,121.068270 L 51.307600,121.274470 L 50.243100,120.552970 L 49.006700,118.835270 L 46.018900,116.602270 L 44.610900,114.506570 L 43.717900,111.208570 L 41.073500,108.631970 L 38.257500,107.257870 L 36.162800,106.914270 L 34.926400,106.055370 L 2.403900,106.811170 L 1.511000,73.726970 L 0.583700,40.092670 L 0.000000,7.523710 L 32.316300,6.389980 L 65.697900,5.290510 L 98.358400,4.156880 L 131.567000,3.023150 L 164.948600,1.717730 L 197.986100,0.377850 L 207.121300,0.000000 z" id="Clinton" style="fill:#ffffff;stroke:#000000;stroke-width:1;stroke-linejoin:miter;stroke-miterlimit:4;stroke-dasharray:none" />
</svg>